HIERARCHY
ROOT Hips
{
	OFFSET 0.000000 0.000000 0.000000
	CHANNELS 6 Xposition Yposition Zposition Xrotation Yrotation Zrotation
	JOINT LeftUpLeg_virtual
	{
		OFFSET 0.000000 0.000000 0.000000
		CHANNELS 3 Xrotation Yrotation Zrotation
		JOINT LeftUpLeg
		{
			OFFSET 13.026900 -6.336304 -1.092800
			CHANNELS 3 Xrotation Yrotation Zrotation
			JOINT LeftLeg
			{
				OFFSET 0.524474 -46.096886 9.782700
				CHANNELS 3 Xrotation Yrotation Zrotation
				JOINT LeftFoot
				{
					OFFSET -0.524474 -53.427422 -12.948200
					CHANNELS 3 Xrotation Yrotation Zrotation
					JOINT LeftToeBase
					{
						OFFSET 0.192200 -14.009700 16.364100
						CHANNELS 3 Xrotation Yrotation Zrotation
						JOINT LeftToe_End
						{
							OFFSET -1.784700 -0.561700 9.474800
							CHANNELS 3 Xrotation Yrotation Zrotation
							End Site
							{
								OFFSET 0 0 0
							}
						}
					}
				}
			}
		}
	}
	JOINT RightUpLeg_virtual
	{
		OFFSET 0.000000 0.000000 0.000000
		CHANNELS 3 Xrotation Yrotation Zrotation
		JOINT RightUpLeg
		{
			OFFSET -12.883000 -6.336304 -1.092800
			CHANNELS 3 Xrotation Yrotation Zrotation
			JOINT RightLeg
			{
				OFFSET -0.524587 -46.096825 9.782800
				CHANNELS 3 Xrotation Yrotation Zrotation
				JOINT RightFoot
				{
					OFFSET 0.524587 -53.427383 -12.948300
					CHANNELS 3 Xrotation Yrotation Zrotation
					JOINT RightToeBase
					{
						OFFSET -0.192200 -14.009700 16.364100
						CHANNELS 3 Xrotation Yrotation Zrotation
						JOINT RightToe_End
						{
							OFFSET 1.784700 -0.561700 9.474800
							CHANNELS 3 Xrotation Yrotation Zrotation
							End Site
							{
								OFFSET 0 0 0
							}
						}
					}
				}
			}
		}
	}
	JOINT Spine_virtual
	{
		OFFSET 0.000000 0.000000 0.000000
		CHANNELS 3 Xrotation Yrotation Zrotation
		JOINT Spine
		{
			OFFSET 0.072000 7.257294 -0.789700
			CHANNELS 3 Xrotation Yrotation Zrotation
			JOINT Spine1
			{
				OFFSET 0.000000 12.508769 -0.658067
				CHANNELS 3 Xrotation Yrotation Zrotation
				JOINT Spine1_split
				{
					OFFSET 0.000000 12.508769 -0.658067
					CHANNELS 3 Xrotation Yrotation Zrotation
					JOINT Spine2
					{
						OFFSET 0.000000 12.508769 -0.658067
						CHANNELS 3 Xrotation Yrotation Zrotation
						JOINT Neck_virtual
						{
							OFFSET 0.000000 0.000000 0.000000
							CHANNELS 3 Xrotation Yrotation Zrotation
							JOINT Neck
							{
								OFFSET 0.000000 14.033295 7.520400
								CHANNELS 3 Xrotation Yrotation Zrotation
								JOINT Head
								{
									OFFSET 0.000000 8.198502 5.703100
									CHANNELS 3 Xrotation Yrotation Zrotation
									JOINT HeadTop_End
									{
										OFFSET 0.000000 17.760803 13.332701
										CHANNELS 3 Xrotation Yrotation Zrotation
										End Site
										{
											OFFSET 0 0 0
										}
									}
								}
							}
						}
						JOINT LeftShoulder_virtual
						{
							OFFSET 0.000000 0.000000 0.000000
							CHANNELS 3 Xrotation Yrotation Zrotation
							JOINT LeftShoulder
							{
								OFFSET 6.292450 5.785301 -0.669000
								CHANNELS 3 Xrotation Yrotation Zrotation
								JOINT LeftShoulder_split
								{
									OFFSET 6.292450 5.785301 -0.669000
									CHANNELS 3 Xrotation Yrotation Zrotation
									JOINT LeftArm
									{
										OFFSET 13.907140 -6.093903 1.965100
										CHANNELS 3 Xrotation Yrotation Zrotation
										JOINT LeftForeArm
										{
											OFFSET 34.140198 0.000000 0.000000
											CHANNELS 3 Xrotation Yrotation Zrotation
											JOINT LeftHand
											{
												OFFSET 40.960209 0.000000 0.000000
												CHANNELS 3 Xrotation Yrotation Zrotation
												End Site
												{
													OFFSET 0 0 0
												}
											}
										}
									}
								}
							}
						}
						JOINT RightShoulder_virtual
						{
							OFFSET 0.000000 0.000000 0.000000
							CHANNELS 3 Xrotation Yrotation Zrotation
							JOINT RightShoulder
							{
								OFFSET -6.292450 5.785301 -0.669000
								CHANNELS 3 Xrotation Yrotation Zrotation
								JOINT RightShoulder_split
								{
									OFFSET -6.292450 5.785301 -0.669000
									CHANNELS 3 Xrotation Yrotation Zrotation
									JOINT RightArm
									{
										OFFSET -13.907140 -6.093903 1.965100
										CHANNELS 3 Xrotation Yrotation Zrotation
										JOINT RightForeArm
										{
											OFFSET -34.140198 0.000000 0.000000
											CHANNELS 3 Xrotation Yrotation Zrotation
											JOINT RightHand
											{
												OFFSET -40.960209 0.000000 0.000000
												CHANNELS 3 Xrotation Yrotation Zrotation
												End Site
												{
													OFFSET 0 0 0
												}
											}
										}
									}
								}
							}
						}
					}
				}
			}
		}
	}
}
MOTION
Frames: 8
Frame Time: 0.03333333
1.398752 94.592743 -1.424965 0.000000 0.000000 0.000000 -6.217363 -51.966528 -0.260993 -25.045414 11.515116 17.403057 49.392909 0.949017 5.356280 -15.414151 -9.600214 -12.472186 -5.411541 0.326185 -0.387116 0.000000 0.000000 0.000000 -6.702973 -50.552607 0.143451 -24.127005 -9.698175 -30.621442 54.120554 0.600053 -2.755432 -18.552389 -10.462235 22.010211 -1.258920 0.210320 -0.043229 0.000000 0.000000 0.000000 -6.776816 -50.684703 -1.571724 11.007480 7.321938 -2.870632 0.924079 1.538941 -0.621841 0.387600 -0.470083 1.209225 0.000000 0.000000 0.000000 0.626288 2.135516 -0.491926 3.646591 14.396092 6.191749 6.952676 19.015265 -2.218385 0.000000 0.000000 0.000000 2.687644 1.328854 -0.090770 1.251421 3.851248 -6.864213 -4.587102 -4.417283 -3.856035 -50.658475 6.285911 -46.568090 179.149032 -72.467317 -178.545448 0.000000 0.000000 0.000000 2.635606 1.735724 -0.408807 3.752112 11.256137 -5.501538 0.591738 -4.491504 -1.936280 -49.588085 20.774104 86.911582 177.121791 72.552906 -176.975256 0.000000 0.000000 0.000000 
1.854080 93.244690 0.415325 0.000000 0.000000 0.000000 -7.307534 -53.323645 -0.945385 -26.506528 10.770426 17.511814 52.096059 1.865753 4.779763 -15.230740 -8.411509 -13.056707 -6.770472 0.328759 -0.570538 0.000000 0.000000 0.000000 -7.752248 -51.540088 -0.437447 -24.495290 -9.302520 -30.990289 55.873509 1.140693 -2.813638 -20.452826 -10.820911 21.336840 -0.023920 0.108124 0.147476 0.000000 0.000000 0.000000 -7.211996 -51.262885 -1.788828 11.666138 7.492613 -2.837718 1.094248 1.417887 -0.591780 0.676873 -0.348741 1.301286 0.000000 0.000000 0.000000 0.669772 2.020458 -0.534805 3.739220 14.291329 6.109619 7.050935 19.034110 -2.096009 0.000000 0.000000 0.000000 2.627368 1.283488 -0.033568 1.167340 3.582450 -7.281353 -2.384215 -6.104979 -3.232676 -52.805951 6.500093 -47.311774 175.849927 -72.550037 177.773322 0.000000 0.000000 0.000000 2.657035 1.657672 -0.437775 3.859731 11.950848 -5.472840 0.958278 -4.719952 -1.005385 -50.864569 22.958200 87.100403 177.634410 73.132680 -177.272683 0.000000 0.000000 0.000000 
2.174702 90.398972 2.852051 0.000000 0.000000 0.000000 -8.214990 -54.694748 -1.698115 -29.496749 9.894361 18.663878 58.406054 1.501368 3.537373 -16.218841 -8.583785 -13.987102 -9.413908 -0.155210 0.980219 0.000000 0.000000 0.000000 -8.583611 -52.324180 -1.046536 -25.303523 -8.024556 -31.575507 58.416614 2.394327 -3.376358 -21.521221 -11.368914 22.036063 -0.539087 -0.055986 0.460624 0.000000 0.000000 0.000000 -7.868736 -52.316097 -2.240454 12.790198 7.974785 -2.411996 0.977902 1.284626 -0.732308 0.701683 -0.293090 1.052715 0.000000 0.000000 0.000000 0.306161 1.825823 -0.712421 3.286214 14.367892 6.058066 7.662537 19.012544 -1.759742 0.000000 0.000000 0.000000 2.324907 1.195326 -0.104490 1.021101 3.364665 -8.034707 -0.792020 -6.573011 -2.231275 -53.414094 6.329292 -47.901626 171.035177 -73.084322 172.596900 0.000000 0.000000 0.000000 2.242070 1.492279 -0.579786 3.896905 12.728107 -5.262885 0.704868 -4.187154 -0.524186 -51.890668 23.998891 86.377031 178.378887 74.150952 -178.309601 0.000000 0.000000 0.000000 
2.444058 86.635712 5.646812 0.000000 0.000000 0.000000 -8.921602 -55.992381 -2.431729 -34.223964 8.253994 20.902580 67.564320 -0.932568 2.523600 -17.077611 -10.217524 -16.173364 -11.679634 -0.973163 3.324849 0.000000 0.000000 0.000000 -8.958610 -53.003549 -1.467932 -26.672674 -6.121930 -32.372908 61.131122 4.235334 -4.391579 -21.511245 -11.782361 24.017623 -2.436774 -0.269272 0.767996 0.000000 0.000000 0.000000 -8.692398 -53.873168 -2.916868 14.237735 8.663862 -1.666183 0.663257 1.240824 -1.028166 0.701428 0.232883 0.717863 0.000000 0.000000 0.000000 -0.388385 1.692091 -0.970418 2.212818 14.590737 6.042349 8.480356 19.229897 -1.438739 0.000000 0.000000 0.000000 1.777895 1.135115 -0.280199 0.872511 3.461869 -8.817866 0.333942 -5.712253 -0.981068 -51.825949 7.037141 -47.551996 167.230830 -72.964254 168.556938 0.000000 0.000000 0.000000 1.431264 1.333274 -0.839788 3.818687 13.437204 -5.042501 0.387095 -3.023155 -0.381905 -52.619487 23.663090 85.026484 -179.936894 75.214999 179.255870 0.000000 0.000000 0.000000 
3.031919 82.545334 8.340706 0.000000 0.000000 0.000000 -9.373088 -57.445682 -2.970413 -39.857794 5.716775 23.737686 76.772494 -4.294380 2.067262 -17.371944 -12.709199 -18.355519 -13.462270 -1.917197 5.481932 0.000000 0.000000 0.000000 -9.168361 -53.665643 -1.755413 -28.776950 -3.859546 -33.533852 63.434733 6.264827 -5.579682 -20.883626 -11.818352 26.225452 -3.447158 -0.420169 0.923385 0.000000 0.000000 0.000000 -9.458752 -55.672718 -3.575855 15.838066 9.307045 -0.743715 0.195166 1.315690 -1.434329 0.694063 0.747725 0.403167 0.000000 0.000000 0.000000 -1.198147 1.699535 -1.255213 0.752432 15.046512 5.989211 9.120864 19.985364 -1.386111 0.000000 0.000000 0.000000 1.046992 1.169238 -0.530330 0.739705 3.932709 -9.432305 0.971978 -4.095057 0.751236 -48.145122 9.652126 -45.925232 167.779103 -70.836186 169.022771 0.000000 0.000000 0.000000 0.375012 1.225388 -1.198811 3.571681 13.851812 -5.083405 0.140707 -2.064777 -0.289968 -53.289894 22.997056 83.891382 -177.223656 76.168344 175.503623 0.000000 0.000000 0.000000 
3.994398 78.997856 11.179184 0.000000 0.000000 0.000000 -9.582839 -58.945782 -3.190061 -45.325702 2.288319 26.802818 83.801394 -7.720344 2.460685 -15.927636 -14.962385 -20.623874 -15.266578 -2.645500 6.641130 0.000000 0.000000 0.000000 -8.952971 -54.603066 -1.670798 -31.780696 -1.707886 -35.406639 64.783197 8.118470 -6.548357 -19.972064 -11.413993 27.792854 -2.887942 -0.402238 0.780775 0.000000 0.000000 0.000000 -9.815201 -57.322970 -3.908287 17.272633 9.663389 0.189089 -0.326364 1.504971 -1.815381 0.442151 0.760131 0.341516 0.000000 0.000000 0.000000 -1.893083 1.843968 -1.484937 -0.743857 15.743139 5.721705 9.412629 21.564888 -1.865045 0.000000 0.000000 0.000000 0.280186 1.310459 -0.769256 0.645023 4.773028 -9.707628 1.238690 -2.539555 2.652993 -44.323259 13.790253 -43.495119 172.011484 -66.366120 173.217928 0.000000 0.000000 0.000000 -0.680689 1.210012 -1.565526 3.231431 13.761144 -5.601742 0.148535 -1.617734 -0.054592 -54.093821 23.646279 84.158333 -173.635771 77.191041 170.951220 0.000000 0.000000 0.000000 
5.196797 76.571777 14.677029 0.000000 0.000000 0.000000 -9.458369 -60.713886 -3.110721 -49.304888 -1.716388 29.595623 87.019629 -10.451884 3.345619 -12.247718 -15.939134 -23.213694 -17.240461 -2.834496 6.272853 0.000000 0.000000 0.000000 -8.680128 -56.080446 -1.490118 -35.139991 0.166320 -38.134599 64.826835 9.878725 -7.185950 -18.483195 -10.304075 28.955033 -1.948052 -0.215289 0.192665 0.000000 0.000000 0.000000 -9.820127 -58.898429 -3.980771 18.323386 9.338039 0.858473 -0.790735 1.695745 -2.029730 0.282201 0.571620 0.754172 0.000000 0.000000 0.000000 -2.225897 1.986294 -1.557775 -1.974394 16.802559 5.273114 9.290056 23.952452 -2.949576 0.000000 0.000000 0.000000 -0.374114 1.459959 -0.936949 0.544680 5.857485 -9.686637 1.176987 -1.868115 4.221100 -41.974607 18.328124 -40.979059 176.425262 -61.194165 177.686825 0.000000 0.000000 0.000000 -1.488665 1.212075 -1.770932 2.795419 13.102026 -6.526242 0.549672 -1.959504 0.799320 -55.292557 27.023348 85.779847 -169.991128 77.988678 166.774737 0.000000 0.000000 0.000000 
6.511605 75.496964 18.555790 0.000000 0.000000 0.000000 -8.861159 -62.652738 -2.721740 -50.740475 -4.698762 32.238585 85.025214 -11.177822 3.175491 -8.410205 -14.469331 -24.072944 -17.619108 -2.271949 4.141498 0.000000 0.000000 0.000000 -8.528596 -57.917969 -1.408332 -37.699762 1.661360 -41.543499 63.474737 11.570118 -7.450723 -15.828707 -8.329450 30.073675 -1.966520 0.126952 -0.678969 0.000000 0.000000 0.000000 -9.687124 -60.304485 -4.017989 18.770939 8.134793 1.030186 -1.107846 1.703021 -1.939007 0.178186 -0.053632 1.172701 0.000000 0.000000 0.000000 -2.134396 1.931021 -1.404412 -2.599332 18.213213 4.654807 8.730519 27.012980 -4.541759 0.000000 0.000000 0.000000 -0.757603 1.503371 -0.945119 0.454585 7.037281 -9.480770 0.986824 -2.043600 4.956217 -42.056357 21.372482 -38.826733 179.574580 -59.264124 -179.181543 0.000000 0.000000 0.000000 -1.831544 1.133900 -1.703282 2.252533 11.882267 -7.551578 0.689103 -2.499805 1.976683 -57.064786 33.550733 88.498536 -168.008256 78.141380 164.785731 0.000000 0.000000 0.000000 
